<?xml version="1.0" standalone="no"?><!DOCTYPE svg PUBLIC "-//W3C//DTD SVG 1.1//EN" "http://www.w3.org/Graphics/SVG/1.1/DTD/svg11.dtd"><svg class="icon" height="512" viewBox="0 0 1024 1024" version="1.1" xmlns="http://www.w3.org/2000/svg"><path d="M512 51.2c-256 0-460.8 204.8-460.8 460.8s204.8 460.8 460.8 460.8 460.8-204.8 460.8-460.8-204.8-460.8-460.8-460.8z m158.72 716.8C512 768 256 496.64 256 358.4c0-51.2 71.68-102.4 97.28-102.4 30.72 0 97.28 117.76 97.28 138.24 0 25.6-25.6 40.96-25.6 66.56s102.4 133.12 128 133.12 40.96-25.6 71.68-25.6c25.6 0 138.24 81.92 138.24 102.4 5.12 51.2-51.2 97.28-92.16 97.28z" fill="" /></svg>